<?xml version="1.0" encoding="UTF-8"?>
<svg id="Livello_2" data-name="Livello 2" xmlns="http://www.w3.org/2000/svg" viewBox="0 0 51.54 61.21">
  <defs>
    <style>
      .cls-1 {
        fill: #141419;
      }
    </style>
  </defs>
  <g id="Livello_1-2" data-name="Livello 1">
    <path class="cls-1" d="M.95,.94c-.09,.59,.27,1.33,.93,1.41,.99,.12,1.97,.33,2.92,.65,.01,0,.03,0,.05,.01,.03,.01,.07,.03,.1,.04,.11,.04,.21,.08,.32,.12,.24,.09,.47,.19,.7,.29,.46,.21,.92,.43,1.36,.68,.21,.12,.41,.24,.62,.37,.11,.07,.21,.14,.32,.2,0,0,.02,.01,.03,.02,.03,.02,.07,.05,.1,.07,.4,.28,.8,.58,1.18,.9,.39,.33,.76,.67,1.12,1.03,.17,.17,.33,.34,.5,.52,.02,.03,.1,.11,.11,.12,.08,.1,.16,.19,.24,.29,.63,.77,1.2,1.6,1.67,2.48,.05,.1,.11,.2,.16,.3,0,0,0,0,0,0,.02,.05,.04,.09,.07,.14,.12,.24,.22,.48,.33,.73,.15,.36,.28,.72,.4,1.09-2.34,.43-4.62,1.27-6.66,2.48-1.65,.98-3.17,2.24-4.4,3.72-1.3,1.57-2.36,3.44-2.84,5.43-.47,2-.4,4.39,.85,6.11,.72,.99,1.77,1.69,2.96,1.98,1.23,.29,2.56,.11,3.73-.32,2.19-.79,4.07-2.4,5.51-4.2,1.42-1.77,2.46-3.79,3.13-5.95,.64-2.08,.89-4.31,.69-6.48-.02-.24-.05-.48-.08-.71,.08,0,.16-.01,.24-.01,.46-.02,.92-.02,1.37,0,.12,0,.24,0,.35,.01,.09,0,.43,.03,.07,0,.23,.02,.47,.04,.7,.06,.92,.1,1.83,.26,2.73,.5,.21,.06,.43,.12,.64,.18,.1,.03,.2,.06,.31,.1,.07,.02,.14,.05,.21,.07,0,0,0,0,0,0,0,0,0,0,0,0,0,0,0,0,0,0,.1,.03,.11,.05,.09,.05,.09,.04,.23,.06,.28,.08,.12,.05,.24,.09,.37,.14,.24,.1,.48,.2,.72,.3,.93,.4,1.83,.87,2.69,1.39,.22,.13,.44,.27,.66,.41,.04,.02,.07,.05,.11,.07,0,0,0,0,0,0,0,0,0,0,0,0,.01,0,.02,.02,.04,.02,.1,.07,.04,.05,0,.02,.08,.07,.27,.17,.32,.2,.41,.29,.82,.6,1.21,.91,.81,.64,1.57,1.34,2.3,2.07,.34,.35,.69,.7,1.01,1.06,0,.01,.02,.03,.05,.06,.04,.04,.08,.09,.12,.13,.08,.09,.15,.18,.23,.27,.17,.2,.34,.41,.5,.61,.66,.83,1.28,1.69,1.86,2.58,.56,.87,1.09,1.76,1.57,2.68,.06,.1,.11,.21,.16,.31,0,0,.01,.02,.02,.05,.01,.02,.05,.09,.06,.11,.12,.25,.25,.5,.37,.76,.22,.47,.43,.94,.62,1.41,.95,2.28,1.67,4.66,2.21,7.07,.07,.31,.14,.61,.2,.92,0,.03,.03,.13,.03,.16,0,.04,.02,.08,.02,.12,.04,.18,.07,.36,.1,.54,.12,.63,.23,1.27,.32,1.91,.2,1.3,.36,2.6,.48,3.91,.25,2.6,.38,5.22,.44,7.84,.02,.79,.03,1.57,.05,2.36-.97-1.45-1.95-2.9-2.92-4.35-.49-.74-.99-1.47-1.48-2.21-.35-.52-1.14-.7-1.66-.32-.52,.39-.69,1.1-.32,1.66,1.75,2.6,3.5,5.21,5.25,7.81,.49,.74,.99,1.47,1.48,2.21,.23,.35,.65,.55,1.07,.52,.45-.03,.76-.29,.99-.66,1.58-2.59,3.17-5.18,4.75-7.77,.45-.74,.91-1.49,1.36-2.23,.15-.25,.15-.66,.06-.92-.09-.27-.33-.56-.59-.67-.63-.28-1.25-.03-1.6,.54-1.33,2.18-2.67,4.36-4,6.54-.07-5.06-.27-10.12-1.09-15.12-.83-5.06-2.28-10-4.78-14.5-2.11-3.81-4.98-7.3-8.5-9.88-1.77-1.3-3.7-2.4-5.76-3.17-2-.75-4.04-1.17-6.17-1.29-.81-.04-1.62-.04-2.43,.02-.34-1.14-.8-2.24-1.37-3.3C13.09,4.95,9.46,2.04,5.32,.67,4.36,.35,3.37,.13,2.36,.01,1.75-.06,1.06,.27,.95,.94Zm8.76,15.42s.04-.02,.06-.03c-.04,.02-.24,.12-.06,.03Zm-5.6,4.85s-.06,.08,0,0h0Zm.06-.08s-.01,.02-.03,.04c.02-.02,.03-.04,.03-.04Zm-.92,7.86s-.02-.02-.03-.03c-.11-.11-.02-.02,.03,.03Zm1.83,.87s0,0,0,0c.07,0,.18,.03,0,0Zm9.71-12.18s0,0,0-.01c0,0,0,0,0,.01Zm-.02-2.23c.04,.5,.05,1,.05,1.5,0,.23-.02,.45-.03,.68,0,.05,0,.11-.01,.16-.01,.14-.03,.29-.04,.43-.12,1.01-.33,2.01-.64,2.98-.02,.08-.05,.16-.07,.24,0,0-.01,.03-.03,.08-.02,.05-.04,.11-.06,.16-.09,.24-.18,.48-.28,.72-.2,.48-.42,.94-.67,1.4-.23,.43-.49,.85-.76,1.27-.04,.05-.07,.11-.11,.16-.07,.09-.13,.19-.2,.28-.15,.21-.31,.41-.47,.61-.33,.4-.67,.78-1.04,1.14-.16,.16-.33,.32-.5,.47,0,0,0,0,0,0-.04,.04-.08,.07-.12,.11-.11,.09-.22,.18-.33,.27-.42,.34-.87,.65-1.33,.91-.05,.03-.11,.06-.17,.09,0,0-.05,.03-.09,.05-.03,.02-.08,.04-.1,.05-.07,.03-.14,.07-.21,.1-.26,.11-.52,.22-.79,.3-.12,.04-.24,.07-.36,.1-.06,.02-.12,.03-.18,.04,0,0,0,0-.01,0-.26,.04-.52,.08-.79,.09-.09,0-.29-.04-.38,0-.05,0-.09-.01-.14-.02-.12-.02-.23-.04-.34-.07-.07-.02-.14-.04-.21-.06,0,0,0,0,0,0-.07-.03-.71-.31-.69-.36,0-.01,.24,.18,.07,.04-.04-.03-.08-.06-.12-.09-.1-.08-.19-.16-.28-.25-.02-.02-.03-.03-.05-.05-.02-.06-.17-.21-.2-.25-.06-.08-.11-.16-.16-.24-.03-.05-.05-.09-.08-.14-.07-.19-.16-.36-.22-.55-.03-.1-.06-.19-.08-.29-.01-.05-.02-.11-.04-.16-.07-.46-.11-.91-.1-1.37,0-.02,0-.11,0-.19,0,.02,0,.03,0-.03,0-.06,0-.1,0-.1,0,0,0,0,0,.02,0-.05,0-.09,.01-.14,.03-.24,.06-.48,.11-.72,.04-.22,.1-.45,.16-.67,.03-.12,.07-.23,.1-.34,.01-.04,.02-.07,.04-.11,0,0,0,0,0,0,.34-.86,.75-1.69,1.26-2.47,0,0,.03-.04,.05-.08,.06-.08,.11-.16,.17-.24,.13-.19,.27-.37,.41-.55,.28-.36,.58-.7,.9-1.03,.15-.16,.3-.31,.46-.46,.08-.08,.17-.16,.25-.23,.03-.03,.07-.06,.1-.09,0,0,0,0,0,0,.34-.29,.68-.57,1.04-.83,.36-.26,.73-.51,1.11-.74,.1-.06,1.18-.64,1.2-.68,.02-.01,.05-.02,.07-.04,.09-.04,.19-.09,.28-.13,.22-.1,.45-.2,.67-.3,.42-.17,.84-.33,1.27-.48,.44-.15,.89-.28,1.35-.4,.2-.05,.41-.1,.61-.15,.06-.01,.11-.02,.17-.04,.03,0,.07-.01,.09-.02,.08-.01,.15-.03,.23-.04,.05,0,.11-.02,.16-.03,.03,.25,.06,.49,.08,.74Z"/>
  </g>
</svg>